# xmcd
#
# Track frame offsets:
#	150
#	13453
#	30275
#	43857
#	60272
#	73007
#	85839
#	98982
#	112638
#	128700
#	144434
#	157932
#	169901
#	185722
#
# Disc length: 2632 seconds
#
# Revision: 1
# Processed by: cddbd v1.5.2PL0 Copyright (c) Steve Scherf et al.
# Submitted via: audiograbber 1.83.01
#
DISCID=b20a460e
DTITLE=Big Tom - Around Ireland
DYEAR=2008
DGENRE=
TTITLE0=Old Father Time
TTITLE1=The Ghost Of Glengevlin
TTITLE2=Four Country Roads
TTITLE3=5,000 Miles From Sligo
TTITLE4=Cottage On The Borderline Of Galway and Mayo
TTITLE5=Pretty Little Girl From Omagh
TTITLE6=Back To Castleblayney
TTITLE7=Where The Grass Grows The Greenest
TTITLE8=My Donegal Shore
TTITLE9=Connemara Country Boy
TTITLE10=Streets Of Dublin City
TTITLE11=Clones Cyclone
TTITLE12=My Rose Of The Mountain
TTITLE13=My Old Home In Mayo
EXTD=
EXTT0=
EXTT1=
EXTT2=
EXTT3=
EXTT4=
EXTT5=
EXTT6=
EXTT7=
EXTT8=
EXTT9=
EXTT10=
EXTT11=
EXTT12=
EXTT13=
PLAYORDER=
